<?xml version="1.0" standalone="no"?><!DOCTYPE svg PUBLIC "-//W3C//DTD SVG 1.1//EN" "http://www.w3.org/Graphics/SVG/1.1/DTD/svg11.dtd"><svg t="1534380150142" class="icon" style="" viewBox="0 0 1024 1024" version="1.1" xmlns="http://www.w3.org/2000/svg" p-id="1043" xmlns:xlink="http://www.w3.org/1999/xlink" width="200" height="200"><defs><style type="text/css"></style></defs><path d="M251.889 500.777l526.223 0 0 28.444L251.889 529.221 251.889 500.777 251.889 500.777z" p-id="1044" fill="#dbdbdb"></path><path d="M500.777 251.889l28.444 0 0 526.223-28.444 0L500.777 251.889 500.777 251.889z" p-id="1045" fill="#dbdbdb"></path><path d="M933.067 1003.067 96.932 1003.067c-38.598 0-70-31.402-70-70L26.932 96.932c0-38.598 31.402-70 70-70l836.135 0c38.598 0 70 31.402 70 70l0 836.135C1003.067 971.665 971.665 1003.067 933.067 1003.067zM96.932 60.932c-19.851 0-36 16.149-36 36l0 836.135c0 19.851 16.149 36 36 36l836.135 0c19.851 0 36-16.149 36-36L969.067 96.932c0-19.851-16.149-36-36-36L96.932 60.932z" p-id="1046" fill="#dbdbdb"></path></svg>