<?xml version="1.0" standalone="no"?><!DOCTYPE svg PUBLIC "-//W3C//DTD SVG 1.1//EN" "http://www.w3.org/Graphics/SVG/1.1/DTD/svg11.dtd">
<svg width="256" height="256" version="1.1" viewBox="0 0 256 256" 
    xmlns="http://www.w3.org/2000/svg" p-id="3057" 
    xmlns:xlink="http://www.w3.org/1999/xlink">
    <rect width="100%" height="100%" stroke="#202b54" stroke-width="8" fill='none' rx="6%" ry="6%"></rect>
    <g fill="#202b54" transform="matrix(4,0,0,4,30,80)">
        <path d="M12.84 7.199999999999999 l1.44 12.8 l-1.48 0 l-1.24 -10.96 l-3.16 10.96 l-1.8 0 l-3.16 -10.96 l-1.24 10.96 l-1.48 0 l1.44 -12.8 l2.28 0 l3.06 10.62 l3.06 -10.62 l2.28 0 z M24.939999999999998 7.220000000000001 l1.48 0 c0.14 1.6 -0.06 3.2 -0.6 4.86 c-0.6 1.88 -1.52 3.5 -2.34 4.96 c-0.68 1.18 -1.22 2.14 -1.48 2.96 l-1.82 0 c-0.26 -0.82 -0.8 -1.78 -1.48 -2.96 c-0.82 -1.46 -1.74 -3.08 -2.34 -4.96 c-0.54 -1.66 -0.74 -3.26 -0.6 -4.86 l1.48 0 c-0.34 3.66 1.36 6.64 2.74 9.08 c0.4 0.7 0.8 1.4 1.1 2.04 c0.32 -0.64 0.72 -1.34 1.12 -2.04 c1.38 -2.44 3.08 -5.42 2.74 -9.08 z M27.92 20 l0 -9.9 l1.48 0 l0 9.9 l-1.48 0 z M28.66 8.48 c-0.54 0 -0.98 -0.44 -0.98 -0.98 c0 -0.56 0.44 -1 0.98 -1 c0.56 0 1 0.44 1 1 c0 0.54 -0.44 0.98 -1 0.98 z M37.86 10.1 l1.48 0 c0.1 1.28 -0.06 2.54 -0.48 3.82 c-0.46 1.48 -1.2 2.76 -1.84 3.88 c-0.5 0.88 -0.9 1.62 -1.1 2.2 l-1.78 0 c-0.2 -0.58 -0.6 -1.32 -1.12 -2.2 c-0.64 -1.12 -1.36 -2.4 -1.84 -3.88 c-0.42 -1.28 -0.56 -2.54 -0.46 -3.82 l1.48 0 c-0.28 2.78 0.98 5 2.1 6.96 c0.26 0.46 0.52 0.88 0.72 1.3 c0.22 -0.42 0.46 -0.84 0.72 -1.3 c1.14 -1.96 2.4 -4.18 2.12 -6.96 z  M48.040000000000006 11.34 c0.72 0.88 1.04 2.12 1.04 3.64 c0 1.54 -0.32 2.76 -1.04 3.64 c-0.36 0.5 -0.82 0.86 -1.4 1.12 c-0.54 0.24 -1.2 0.38 -1.88 0.38 s-1.36 -0.14 -1.88 -0.38 c-0.58 -0.26 -1.06 -0.62 -1.42 -1.12 c-0.72 -0.88 -1.06 -2.1 -1.06 -3.64 c0 -1.52 0.34 -2.76 1.06 -3.64 c0.36 -0.5 0.84 -0.84 1.42 -1.12 c0.52 -0.24 1.2 -0.38 1.88 -0.38 s1.34 0.14 1.88 0.38 c0.58 0.28 1.04 0.62 1.4 1.12 z M44.760000000000005 18.64 c1.88 0 2.88 -1.24 2.88 -3.66 s-1 -3.66 -2.88 -3.66 c-1.9 0 -2.88 1.24 -2.88 3.66 s0.98 3.66 2.88 3.66 z"></path>
    </g>
</svg>